<?xml version="1.0" standalone="no"?><!DOCTYPE svg PUBLIC "-//W3C//DTD SVG 1.1//EN" "http://www.w3.org/Graphics/SVG/1.1/DTD/svg11.dtd"><svg class="icon" width="200px" height="200.00px" viewBox="0 0 1024 1024" version="1.1" xmlns="http://www.w3.org/2000/svg"><path d="M1013.76003 344.576v-1.536c-0.512-2.048-1.024-4.096-2.048-6.144l-86.528-217.6c-14.848-44.544-56.32-72.704-108.544-72.704H209.40803c-51.2 0-90.624 27.648-104.96 70.656L11.77603 338.944c-0.512 1.536-1.024 3.072-1.536 5.12C3.58403 364.544 0.00003 386.56 0.00003 408.064A205.476 205.476 0 0 0 107.52003 588.8c27.136 14.848 59.392 22.016 95.232 22.016h0.512c59.904 0 116.736-26.624 155.136-72.704 37.888 46.08 94.72 72.192 154.112 72.704 59.392-0.512 115.712-27.136 153.6-72.704 38.4 46.08 95.232 72.704 155.648 72.704 36.864-0.512 69.632-8.192 96.768-23.04 85.504-48.128 125.952-149.504 95.232-243.2z m-215.04 36.352H208.38403c-20.48 0-36.864-16.384-36.864-36.864s16.384-37.376 36.864-37.376h590.848c20.48 0 36.864 16.384 36.864 37.376s-16.896 36.864-37.376 36.864zM947.20003 678.4c0-20.48-16.384-37.376-36.864-37.376-3.584 0-7.168 1.024-10.752 2.048-28.16 11.264-58.368 16.384-88.576 15.36-58.368-3.072-102.4-14.848-145.408-51.2-42.496 36.864-96.768 56.832-153.088 57.344-57.856-0.512-112.128-14.848-154.624-51.2-42.496 36.864-97.28 54.272-155.136 54.272-35.328 0-55.296-6.656-87.552-18.944-1.024-0.512-2.048-0.512-2.56-1.024l-4.096-1.536s-5.632-1.024-8.192-1.024c-20.48 0-36.864 16.896-36.864 37.376v199.68c0 52.736 42.496 95.232 94.72 95.232l694.784-0.512c52.224-0.512 94.72-43.008 94.72-95.232L947.20003 678.4z" /></svg>